<?xml version="1.0" standalone="no"?>
<!DOCTYPE svg PUBLIC "-//W3C//DTD SVG 20010904//EN"
 "http://www.w3.org/TR/2001/REC-SVG-20010904/DTD/svg10.dtd">
<svg version="1.0" xmlns="http://www.w3.org/2000/svg"
 width="600.000000pt" height="600.000000pt" viewBox="0 0 600.000000 600.000000"
 preserveAspectRatio="xMidYMid meet">
<metadata>
Created by potrace 1.11, written by Peter Selinger 2001-2013
</metadata>
<g transform="translate(0.000000,600.000000) scale(0.100000,-0.100000)"
fill="#000000" stroke="none">
<path d="M0 4880 l0 -1120 370 0 370 0 0 375 0 375 2250 0 2250 0 0 -375 0
-375 380 0 380 0 0 1120 0 1120 -3000 0 -3000 0 0 -1120z"/>
<path d="M4683 3023 c103 -2 271 -2 375 0 103 1 18 2 -188 2 -206 0 -291 -1
-187 -2z"/>
<path d="M1490 2635 l0 -375 375 0 375 0 0 -374 0 -373 -746 -8 c-443 -4 -749
-4 -755 2 -5 5 -10 175 -12 378 l-2 370 -3 -372 -2 -373 -360 0 -360 0 0 -755
0 -755 3000 0 3000 0 0 1130 0 1130 -380 -2 -381 -3 1 -372 0 -373 -750 0
-750 0 0 375 0 375 375 0 375 0 0 375 0 375 -375 0 -375 0 0 -375 0 -375 -750
0 -750 0 0 375 0 375 -375 0 -375 0 0 -375z"/>
</g>
</svg>
